# xmcd CD database file
#
# Track frame offsets:
#	150
#	20387
#	51212
#	68532
#	95397
#	115940
#	142477
#	161232
#	186575
#	205865
#	231267
#	251225
#
# Disc length: 3614 seconds
#
# Revision: 0
# Processed by: cddbd v1.5PL3 Copyright (c) Steve Scherf et al.
# Submitted via: cdripper 1.0.7
#
DISCID=b50e1c0c
DTITLE=Lester Davenport - When the Blues Hit You
DYEAR=1991
DGENRE=Blues
TTITLE0=King of the Jungle
TTITLE1=I Believe My Baby Got a Mojo 
TTITLE2=I'm Gonna Move
TTITLE3=Slow Down Baby
TTITLE4=It Won't Work Like That
TTITLE5=All My Life
TTITLE6=Mad Dog on the Loose
TTITLE7=Walkin' the Streets at Midnight
TTITLE8=Just for Spite
TTITLE9=My Baby's Gone
TTITLE10=I'm Gonna Give It Up
TTITLE11=When the Blues Hit You
EXTD=YEAR: 1991
EXTT0=
EXTT1=
EXTT2=
EXTT3=
EXTT4=
EXTT5=
EXTT6=
EXTT7=
EXTT8=
EXTT9=
EXTT10=
EXTT11=
PLAYORDER=
